HIERARCHY
ROOT Hips
{
  OFFSET 1.44925e-005 102.336 -0.101585
  CHANNELS 6 Xposition Yposition Zposition Zrotation Xrotation Yrotation
  JOINT LeftUpLeg
  {
    OFFSET 8.9458 -8.66707 0.101652
    CHANNELS 3 Zrotation Xrotation Yrotation
    JOINT LeftLeg
    {
      OFFSET 0 -44.4227 1.3727
      CHANNELS 3 Zrotation Xrotation Yrotation
      JOINT LeftFoot
      {
        OFFSET -0.253549 -42.0924 -1.46059
        CHANNELS 3 Zrotation Xrotation Yrotation
        JOINT LeftToes
        {
          OFFSET -0.04 -4.41509 8.4991
          CHANNELS 3 Zrotation Xrotation Yrotation
          End Site
          {
            OFFSET 0.08 -0.047448 9.77979
          }
        }
      }
    }
  }
  JOINT Spine
  {
    OFFSET 0 11.8905 0
    CHANNELS 3 Zrotation Xrotation Yrotation
    JOINT Spine1
    {
      OFFSET 0 25.6574 0.127663
      CHANNELS 3 Zrotation Xrotation Yrotation
      JOINT RightShoulder
      {
        OFFSET -8.99 -0.362252 -0.22
        CHANNELS 3 Zrotation Xrotation Yrotation
        JOINT RightArm
        {
          OFFSET -10.2827 -0.00338 0.322123
          CHANNELS 3 Zrotation Xrotation Yrotation
          JOINT RightForeArm
          {
            OFFSET -26.364 0.099144 -1.42434
            CHANNELS 3 Zrotation Xrotation Yrotation
            JOINT RightHand
            {
              OFFSET -22.0324 0.085362 1.02216
              CHANNELS 3 Zrotation Xrotation Yrotation
              End Site
              {
                OFFSET -13.3284 -0.6 1.50291
              }
            }
          }
        }
      }
      JOINT LeftShoulder1
      {
        OFFSET 8.99 -0.362252 -0.22
        CHANNELS 3 Zrotation Xrotation Yrotation
        JOINT LeftArm
        {
          OFFSET 10.2827 -0.00337999 0.322123
          CHANNELS 3 Zrotation Xrotation Yrotation
          JOINT LeftForeArm
          {
            OFFSET 26.2597 0.099144 -1.42434
            CHANNELS 3 Zrotation Xrotation Yrotation
            JOINT LeftHand
            {
              OFFSET 22.0902 0.085362 1.02216
              CHANNELS 3 Zrotation Xrotation Yrotation
              End Site
              {
                OFFSET 13.419 -0.6 1.50291
              }
            }
          }
        }
      }
      JOINT Head
      {
        OFFSET 0 8.73416 0.011341
        CHANNELS 3 Zrotation Xrotation Yrotation
        End Site
        {
          OFFSET -0.29 12.7742 2.51395
        }
      }
    }
  }
  JOINT RightUpLeg
  {
    OFFSET -8.9458 -8.66707 0.101652
    CHANNELS 3 Zrotation Xrotation Yrotation
    JOINT RightLeg
    {
      OFFSET 0 -44.4227 1.3727
      CHANNELS 3 Zrotation Xrotation Yrotation
      JOINT RightFoot
      {
        OFFSET 0.253549 -42.0924 -1.46059
        CHANNELS 3 Zrotation Xrotation Yrotation
        JOINT RightToes
        {
          OFFSET 0.04 -4.41509 8.4991
          CHANNELS 3 Zrotation Xrotation Yrotation
          End Site
          {
            OFFSET -0.08 -0.137448 9.77979
          }
        }
      }
    }
  }
}
MOTION
Frames:	17
Frame Time:	0.0333333
40.4874 102.15 2.04876 -7.31581 -1.10844 -88.5039 -0.859749 0.538089 2.37145 -0.256753 11.0334 19.6075 -2.39175 -9.26781 0.01368 -1.30487e-009 8.75234e-006 -1.46797e-008 -0.314111 12.1892 -1.57481 -0.0930882 -3.17389 -1.59709 36.5468 1.78138 0.17278 41.118 -23.9095 5.52281 7.07262 39.6505 8.30048 -6.73184 9.61994 -0.0325678 -43.5494 3.53571 -3.52707 -28.5462 -12.524 2.39903 -3.73696 36.0107 -15.3947 5.82328 9.61819 -0.917488 1.73929 -4.3134 -1.32168 -3.36177 1.44908 -5.78105 0.0597374 12.1179 -12.6466 5.24766 -10.8103 -0.0514242 0.0462048 0.000530889 0.662642 
40.5045 102.135 2.04761 -7.31308 -1.10331 -88.4982 -0.86362 0.525867 2.36509 -0.255806 11.0241 19.6551 -2.33241 -9.31176 0.0136817 -1.30487e-009 8.75234e-006 -1.46797e-008 -0.298966 12.1754 -1.56908 -0.0788493 -3.14527 -1.5893 36.5259 1.78138 0.174535 41.1509 -23.9447 5.54733 7.1198 39.7143 8.21497 -6.95672 9.59835 0.185548 -43.5568 3.53571 -3.52707 -28.5616 -12.5836 2.37425 -3.67782 36.2479 -15.4072 5.82328 9.61819 -0.917488 1.72983 -4.34183 -1.34785 -3.36761 1.39144 -5.7809 0.0643857 12.2069 -12.6785 5.22691 -10.8394 -0.0514292 0.0462048 0.000530889 0.662642 
40.5294 102.13 2.04236 -7.31939 -1.11148 -88.4937 -0.870675 0.511296 2.36429 -0.259195 11.032 19.6726 -2.3256 -9.30796 0.0136815 -1.30487e-009 8.75234e-006 -1.46797e-008 -0.326086 12.1704 -1.55363 -0.0380552 -3.11597 -1.58186 36.4656 1.78138 0.182244 41.2243 -24.073 5.58571 7.19093 39.8692 8.06249 -7.14926 9.57795 0.396139 -43.602 3.53571 -3.52707 -28.5545 -12.6714 2.36181 -3.5963 36.5611 -15.4308 5.82328 9.61819 -0.917488 1.72222 -4.3632 -1.41791 -3.36979 1.36617 -5.7782 0.061528 12.2461 -12.6829 5.17986 -10.8462 -0.0514304 0.0462048 0.000530889 0.662642 
40.5424 102.14 2.0353 -7.33899 -1.12046 -88.4775 -0.862472 0.545736 2.38938 -0.275456 10.9868 19.6189 -2.34862 -9.24873 0.0136792 -1.30487e-009 8.75234e-006 -1.46797e-008 -0.363694 12.1387 -1.54518 -0.00593173 -3.04792 -1.58364 36.4132 1.78138 0.190184 41.2849 -24.2542 5.63099 7.21031 40.1011 7.94778 -7.15244 9.57411 0.465018 -43.6504 3.53571 -3.52815 -28.53 -12.753 2.35233 -3.59142 36.6828 -15.406 5.82328 9.61819 -0.917488 1.73953 -4.34317 -1.53528 -3.36244 1.41519 -5.76975 0.0565103 12.1865 -12.6687 5.18032 -10.8243 -0.0514266 0.0462048 0.000530889 0.662642 
40.5425 102.147 2.02884 -7.35342 -1.11568 -88.4343 -0.835193 0.634322 2.4335 -0.305097 10.8328 19.5338 -2.30552 -9.20285 0.0136774 -1.30487e-009 8.75234e-006 -1.46797e-008 -0.367029 12.0543 -1.55439 0.00649544 -2.92578 -1.59554 36.4072 1.78138 0.192224 41.2898 -24.3559 5.68336 7.20246 40.2591 7.90295 -7.07811 9.57889 0.445412 -43.6651 3.5365 -3.53288 -28.5242 -12.8157 2.32489 -3.64055 36.6272 -15.3594 5.82328 9.61819 -0.917488 1.7657 -4.29079 -1.64817 -3.3551 1.4682 -5.77202 0.0666144 12.1281 -12.6869 5.25632 -10.8202 -0.0514259 0.0462048 0.000530889 0.662642 
40.5427 102.147 2.02212 -7.33731 -1.11067 -88.3743 -0.815274 0.706791 2.46025 -0.331756 10.6396 19.4756 -2.21347 -9.18607 0.0136768 -1.30487e-009 8.75234e-006 -1.46797e-008 -0.372378 11.9554 -1.56812 0.0383693 -2.82443 -1.6129 36.4167 1.78138 0.193091 41.2584 -24.3132 5.73021 7.23203 40.2107 7.883 -6.96963 9.58968 0.341944 -43.6772 3.54055 -3.53908 -28.527 -12.8118 2.30467 -3.63442 36.5227 -15.3865 5.82328 9.61819 -0.917488 1.74559 -4.22854 -1.68039 -3.35716 1.45854 -5.78868 0.089843 12.1289 -12.7433 5.306 -10.8373 -0.0514288 0.0462048 0.000530889 0.662642 
40.5515 102.145 2.01424 -7.29523 -1.12395 -88.3193 -0.826716 0.709433 2.44656 -0.337696 10.5181 19.4675 -2.1619 -9.16139 0.0136758 -1.30487e-009 8.75234e-006 -1.46797e-008 -0.422366 11.8969 -1.5698 0.102047 -2.80617 -1.62755 36.4043 1.78138 0.193364 41.2273 -24.1917 5.75763 7.28667 40.0382 7.87121 -6.74101 9.61058 0.14797 -43.7231 3.54682 -3.54407 -28.5038 -12.7164 2.30898 -3.57108 36.4046 -15.4846 5.82328 9.61819 -0.917488 1.66454 -4.17852 -1.62527 -3.37152 1.40318 -5.80538 0.108625 12.1513 -12.8058 5.24258 -10.8347 -0.0514284 0.0462048 0.000530889 0.662642 
40.5666 102.142 2.0054 -7.26727 -1.14883 -88.2742 -0.856746 0.678193 2.41391 -0.326348 10.4885 19.4819 -2.1681 -9.1235 0.0136744 -1.30487e-009 8.75234e-006 -1.46797e-008 -0.484808 11.8942 -1.56007 0.154861 -2.83279 -1.6313 36.3827 1.78138 0.193783 41.1995 -24.0615 5.76883 7.29815 39.8971 7.91308 -6.44088 9.63332 -0.029552 -43.772 3.55082 -3.54323 -28.4689 -12.5692 2.29515 -3.53601 36.2548 -15.5631 5.82328 9.61819 -0.917488 1.58118 -4.17072 -1.55755 -3.39172 1.36262 -5.81721 0.117355 12.1645 -12.8591 5.14615 -10.8106 -0.0514243 0.0462048 0.000530889 0.662642 
40.5842 102.138 1.99499 -7.28193 -1.16628 -88.234 -0.874527 0.67453 2.39522 -0.315766 10.4953 19.4816 -2.18038 -9.10574 0.0136737 -1.30487e-009 8.75234e-006 -1.46797e-008 -0.520574 11.9376 -1.54323 0.189574 -2.84376 -1.62193 36.3513 1.78138 0.194929 41.1878 -23.918 5.77561 7.25656 39.784 8.02472 -6.30504 9.64194 -0.0807838 -43.7981 3.55157 -3.54259 -28.4554 -12.3753 2.22991 -3.52396 36.0789 -15.6268 5.82328 9.61819 -0.917488 1.53499 -4.2249 -1.53588 -3.40365 1.35958 -5.8301 0.122691 12.1918 -12.9083 5.14316 -10.8113 -0.0514244 0.0462048 0.000530889 0.662642 
40.6043 102.135 1.983 -7.32041 -1.17222 -88.2064 -0.873845 0.696781 2.39301 -0.312275 10.504 19.4646 -2.1817 -9.11485 0.0136741 -1.30487e-009 8.75234e-006 -1.46797e-008 -0.553479 12.0138 -1.51452 0.258547 -2.852 -1.60456 36.2577 1.78138 0.199392 41.2397 -23.7669 5.77966 7.21449 39.6285 8.14584 -6.44061 9.63474 -0.0599761 -43.8581 3.55816 -3.54628 -28.4287 -12.0793 2.16256 -3.45429 35.8644 -15.769 5.82328 9.61819 -0.917488 1.48436 -4.31509 -1.54047 -3.40302 1.37045 -5.83936 0.123396 12.239 -12.9459 5.20823 -10.8472 -0.0514305 0.0462048 0.000530889 0.662642 
40.6235 102.133 1.97227 -7.3475 -1.17481 -88.1997 -0.871677 0.707011 2.38971 -0.3069 10.5185 19.4493 -2.19408 -9.11981 0.0136742 -1.30487e-009 8.75234e-006 -1.46797e-008 -0.602027 12.0906 -1.4767 0.359096 -2.88992 -1.58523 36.106 1.78137 0.212193 41.3496 -23.6657 5.77604 7.19628 39.485 8.21851 -6.67457 9.6251 -0.0815083 -43.9915 3.57464 -3.55848 -28.3343 -11.7368 2.15315 -3.35347 35.6089 -15.9564 5.82328 9.61819 -0.917488 1.39389 -4.3821 -1.53287 -3.39518 1.37711 -5.83735 0.115953 12.2659 -12.9558 5.23403 -10.8722 -0.0514348 0.0462048 0.000530889 0.662642 
40.6345 102.132 1.9647 -7.35787 -1.17662 -88.2002 -0.868183 0.701466 2.38285 -0.295711 10.5382 19.4363 -2.21319 -9.10361 0.0136736 -1.30487e-009 8.75234e-006 -1.46797e-008 -0.62449 12.124 -1.44792 0.404051 -2.92841 -1.56566 36.0092 1.78137 0.222693 41.4164 -23.6242 5.76806 7.18413 39.4213 8.25338 -6.80514 9.62191 -0.149822 -44.1164 3.58891 -3.56801 -28.2099 -11.5422 2.1755 -3.34573 35.4036 -16.0217 5.82328 9.61819 -0.917488 1.31424 -4.39018 -1.52342 -3.38832 1.38947 -5.83193 0.1102 12.2501 -12.9455 5.22822 -10.862 -0.0514331 0.0462048 0.000530889 0.662642 
40.6373 102.132 1.95784 -7.36575 -1.17624 -88.1914 -0.865621 0.698439 2.38342 -0.287436 10.5527 19.426 -2.21634 -9.08276 0.0136728 -1.30487e-009 8.75234e-006 -1.46797e-008 -0.599374 12.1086 -1.43658 0.363435 -2.92823 -1.54605 36.0358 1.78137 0.222518 41.3779 -23.5746 5.76833 7.17809 39.3581 8.28382 -6.81151 9.6207 -0.217113 -44.1397 3.59143 -3.5718 -28.1395 -11.5767 2.16876 -3.45341 35.3531 -15.9138 5.82328 9.61819 -0.917488 1.30176 -4.35998 -1.53738 -3.38476 1.40771 -5.82911 0.114249 12.2271 -12.9406 5.27114 -10.8498 -0.051431 0.0462048 0.000530889 0.662642 
40.6422 102.131 1.95172 -7.3697 -1.17796 -88.1878 -0.867995 0.690428 2.3867 -0.288314 10.5621 19.4474 -2.21187 -9.07356 0.0136725 -1.30487e-009 8.75234e-006 -1.46797e-008 -0.580934 12.0893 -1.42914 0.32407 -2.91813 -1.52991 36.0963 1.78137 0.224011 41.3131 -23.4883 5.78783 7.19638 39.2276 8.30442 -6.77446 9.6205 -0.274127 -44.1116 3.59312 -3.5736 -28.1136 -11.6992 2.14 -3.56766 35.4404 -15.7642 5.82328 9.61819 -0.917488 1.32465 -4.34092 -1.55888 -3.38677 1.39884 -5.82897 0.116969 12.2467 -12.948 5.32772 -10.8628 -0.0514332 0.0462048 0.000530889 0.662642 
40.6573 102.13 1.94976 -7.36172 -1.19292 -88.2032 -0.887238 0.663908 2.37529 -0.292663 10.5737 19.51 -2.22087 -9.06883 0.0136723 -1.30487e-009 8.75234e-006 -1.46797e-008 -0.609525 12.1011 -1.4154 0.348544 -2.94359 -1.52114 36.0805 1.78137 0.225741 41.3236 -23.4236 5.82733 7.22876 39.1443 8.29076 -6.76503 9.62076 -0.292764 -44.1418 3.59426 -3.57379 -28.0518 -11.7785 2.13401 -3.6279 35.5873 -15.6645 5.82328 9.61819 -0.917488 1.32311 -4.35677 -1.56475 -3.39928 1.34652 -5.83157 0.105865 12.3117 -12.9309 5.28026 -10.8771 -0.0514357 0.0462048 0.000530889 0.662642 
40.6755 102.13 1.94947 -7.3522 -1.21096 -88.2294 -0.912526 0.639803 2.35312 -0.294012 10.5814 19.5606 -2.22848 -9.05684 0.0136718 -1.30487e-009 8.75234e-006 -1.46797e-008 -0.640797 12.121 -1.40214 0.386859 -2.98257 -1.51567 36.0164 1.78137 0.227067 41.3806 -23.421 5.87102 7.24751 39.2157 8.25004 -6.81808 9.62092 -0.236553 -44.2163 3.59488 -3.57277 -27.9579 -11.8373 2.14725 -3.68379 35.7611 -15.5665 5.82328 9.61819 -0.917488 1.30058 -4.38015 -1.58137 -3.42027 1.29196 -5.84046 0.0952925 12.3715 -12.8713 5.1326 -10.8622 -0.0514331 0.0462048 0.000530889 0.662642 
40.6835 102.13 1.95063 -7.35404 -1.20963 -88.2463 -0.912754 0.64661 2.34862 -0.295577 10.5678 19.5559 -2.20599 -9.04399 0.0136713 -1.30487e-009 8.75234e-006 -1.46797e-008 -0.622526 12.1093 -1.39399 0.384392 -2.99133 -1.50453 35.992 1.78137 0.227129 41.3889 -23.4422 5.8913 7.2464 39.3431 8.2195 -6.88878 9.62025 -0.170899 -44.2394 3.595 -3.57091 -27.9173 -11.8835 2.15804 -3.76135 35.9037 -15.4528 5.82328 9.61819 -0.917488 1.28642 -4.36834 -1.64402 -3.43056 1.28298 -5.85656 0.107 12.3773 -12.809 5.01892 -10.8263 -0.0514973 0.0462048 0.000530889 0.662642 
